<svg width="220" height="46" viewBox="0 0 220 46" fill="none" xmlns="http://www.w3.org/2000/svg">
<path d="M74.59 32.622C70.437 35.013 67.982 34.195 67.982 30.072V22.741H74.874C76.636 22.741 76.636 18.21 74.874 18.21H67.982V13.018C67.982 11.35 63.86 11.35 63.64 12.608L62.759 18.21H60.084C58.322 18.21 58.322 22.74 60.084 22.74H62.759V29.884C62.759 37.94 68.926 39.922 74.59 36.807C76.07 35.894 76.038 31.835 74.59 32.622ZM89.6 33.314C88.75 33.597 88.058 33.754 87.523 33.754C86.328 33.754 85.856 32.936 85.856 31.048V8.864C85.856 6.756 80.696 8.958 80.696 11.067V32.275C80.696 36.712 82.866 38.255 85.604 38.255C86.863 38.255 88.247 37.908 89.6 37.436C91.488 36.586 91.457 32.622 89.6 33.314ZM115.907 33.314C115.497 33.471 115.152 33.534 114.9 33.534C114.019 33.534 113.61 32.936 113.61 31.709V8.58099C113.61 6.50399 108.45 8.707 108.45 10.783V19.594C106.655 18.084 104.17 17.234 101.463 17.234C96.775 17.234 93.597 21.419 93.597 27.681C93.597 34.069 96.775 38.223 101.463 38.223C104.453 38.223 107.033 37.153 108.858 35.391C109.456 37.436 110.872 38.16 112.54 38.16C113.61 38.16 114.743 37.877 115.907 37.436C117.795 36.586 117.7 32.496 115.907 33.314V33.314ZM103.697 33.723C100.487 33.754 98.852 31.709 98.852 27.681C98.852 23.811 100.488 21.734 103.698 21.797C105.428 21.797 107.033 22.489 108.449 23.811V31.521C107.096 32.936 105.429 33.723 103.698 33.723H103.697ZM132.521 17.423C129.06 17.517 126.511 18.839 124.843 20.916L124.183 18.21C123.868 16.982 119.683 16.95 119.683 18.619V36.933C119.683 38.695 124.875 38.695 124.875 36.933V25.32C126.92 23.149 128.997 22.488 131.545 22.362C133.088 22.299 134.126 17.39 132.521 17.422V17.423ZM154.706 26.233C154.706 20.413 151.496 17.234 145.076 17.234C138.374 17.234 134.881 21.294 134.881 27.587C134.881 35.076 140.294 38.223 145.738 38.223C148.192 38.223 150.521 37.562 152.566 36.272C153.793 35.485 153.793 31.866 152.156 32.59C149.923 33.597 147.972 34.163 146.116 34.163C143.031 34.163 140.168 32.653 140.074 29.538C141.269 29.727 142.591 29.79 143.787 29.79C149.325 29.79 154.706 28.31 154.706 26.234V26.233ZM140.168 25.825C140.231 22.458 142.465 21.168 145.298 21.168C148.381 21.168 149.986 22.615 149.986 24.786C149.986 25.447 147.122 26.013 143.472 26.013C142.434 26.013 141.332 25.982 140.168 25.825V25.825ZM178.841 33.314C178.495 33.471 178.181 33.503 177.897 33.503C177.047 33.503 176.607 32.842 176.607 31.048V25.604C176.607 19.374 173.177 17.234 167.797 17.234C163.359 17.234 160.747 18.115 158.891 19.657C157.443 20.821 157.758 24.125 159.237 23.181C161.062 22.143 163.485 21.388 166.223 21.388C169.904 21.388 171.446 22.615 171.446 26.265V26.485C170.093 25.793 168.048 25.353 165.247 25.353C160.527 25.353 157.475 27.901 157.475 31.835C157.475 35.737 160.338 38.255 164.744 38.255C168.142 38.255 170.534 37.027 171.981 35.705C172.673 37.499 173.995 38.16 175.537 38.16C176.607 38.16 177.74 37.877 178.841 37.436C180.761 36.618 180.761 32.622 178.841 33.314V33.314ZM166.16 34.164C163.61 34.164 162.698 32.968 162.698 31.709C162.698 30.387 163.705 29.129 166.443 29.129C168.992 29.129 170.66 29.569 171.446 30.167V31.929C170.66 32.873 168.897 34.163 166.16 34.163V34.164ZM182.302 27.776C182.302 34.856 186.708 38.254 193.096 38.254C195.896 38.254 198.067 37.279 199.389 36.272C200.585 35.296 200.585 31.048 198.98 32.055C197.721 32.936 195.77 33.723 193.756 33.723C190.389 33.723 187.432 32.401 187.432 27.776C187.432 23.118 190.389 21.734 193.756 21.734C195.77 21.734 197.721 22.584 198.98 23.464C200.522 24.503 200.585 20.192 199.389 19.185C198.067 18.115 195.896 17.203 193.096 17.203C186.708 17.203 182.302 20.538 182.302 27.776ZM218.364 32.622C214.242 35.013 211.756 34.195 211.756 30.072V22.741H218.678C220.441 22.741 220.441 18.21 218.678 18.21H211.756V13.018C211.756 11.35 207.665 11.35 207.445 12.608L206.564 18.21H203.889C202.127 18.21 202.127 22.74 203.889 22.74H206.564V29.884C206.564 37.94 212.731 39.922 218.364 36.807C219.874 35.894 219.811 31.835 218.364 32.622Z" fill="black"/>
<path d="M6.48398 29.7924C4.86013 33.8653 4.81115 37.2889 6.70207 39.1799C7.67095 40.1487 9.04132 40.6092 10.6966 40.6092C12.5539 40.5441 14.3827 40.1334 16.0895 39.3983C17.8213 43.4265 20.2074 45.8816 22.8813 45.8816C25.5552 45.8816 27.9413 43.4265 29.6731 39.3979C31.3799 40.1331 33.2087 40.5437 35.0659 40.6089C36.7205 40.6089 38.092 40.1487 39.0608 39.1799C40.9514 37.2893 40.9024 33.8653 39.2786 29.7924C43.3071 28.0606 45.7626 25.6742 45.7626 23.0003C45.7626 20.3264 43.3071 17.9399 39.2786 16.2081C40.9024 12.1353 40.9514 8.71164 39.0605 6.82072C37.1699 4.93015 33.7463 4.97877 29.6734 6.60263C27.9416 2.57445 25.5548 0.119003 22.8813 0.119003C20.207 0.119003 17.8209 2.57445 16.0891 6.60299C12.0162 4.97877 8.59264 4.92979 6.70171 6.82107C4.81115 8.71164 4.86013 12.1353 6.48398 16.2081C2.45545 17.9399 0 20.3264 0 23.0003C0 25.6742 2.45545 28.0606 6.48398 29.7924ZM7.71278 38.1688C6.2398 36.6954 6.39174 33.8106 7.81074 30.3166C9.8105 31.0307 11.8695 31.5665 13.9637 31.9179C14.3149 34.0121 14.8507 36.0711 15.5646 38.0708C12.0709 39.4895 9.18648 39.6414 7.71278 38.1688V38.1688ZM13.2518 24.5605C12.8345 24.04 12.4345 23.5199 12.052 23.0003C12.4343 22.4809 12.8343 21.9609 13.2518 21.4401C13.2379 21.9556 13.2282 22.4747 13.2282 23.0003C13.2282 23.5258 13.2379 24.045 13.2518 24.5605ZM11.1725 21.7668C10.1231 20.2524 9.19355 18.6582 8.39243 16.999C10.1321 16.3921 11.9166 15.9221 13.7295 15.5932C13.5731 16.7103 13.4525 17.8658 13.3677 19.0597C12.5842 19.9621 11.8525 20.8645 11.1725 21.7668ZM13.3677 26.9409C13.4516 28.1328 13.5722 29.2883 13.7295 30.4074C11.9166 30.0785 10.1321 29.6085 8.39243 29.0016C9.19355 27.3424 10.1231 25.7482 11.1725 24.2337C11.8518 25.1342 12.5835 26.0366 13.3677 26.9409V26.9409ZM17.0666 17.1856C17.8727 16.3795 18.6897 15.6125 19.5177 14.8846C20.6167 14.8147 21.7379 14.779 22.8813 14.7773C24.0227 14.7773 25.1439 14.8131 26.2448 14.8846C27.0702 15.6115 27.8873 16.3785 28.696 17.1856C29.5026 17.9924 30.2697 18.8099 30.9973 19.6382C31.0669 20.7369 31.1026 21.8577 31.1042 23.0003C31.1042 24.141 31.0685 25.2616 30.997 26.362C30.2696 27.1882 29.5026 28.0057 28.696 28.8146C27.8892 29.6214 27.0717 30.3887 26.2434 31.1163C25.1446 31.1859 24.0239 31.2216 22.8813 31.2232C21.7406 31.2232 20.62 31.1875 19.5195 31.116C18.6934 30.3886 17.8759 29.6216 17.0669 28.815C16.2601 28.0082 15.4929 27.1907 14.7652 26.3624C14.6956 25.2634 14.66 24.1427 14.6583 23.0003C14.6583 21.8596 14.6941 20.739 14.7656 19.6385C15.493 18.8124 16.26 17.9949 17.0666 17.1859V17.1856ZM14.969 17.2946C15.0419 16.6313 15.1269 15.9806 15.2239 15.3426C15.8613 15.246 16.5118 15.1612 17.1756 15.088C16.8009 15.443 16.4273 15.803 16.0555 16.1749C15.6837 16.5467 15.324 16.9199 14.969 17.2946V17.2946ZM21.3171 13.3712C21.8391 12.9527 22.3605 12.5522 22.8813 12.1699C23.4018 12.5532 23.9232 12.9536 24.4454 13.3712C23.9288 13.3569 23.4083 13.3472 22.8813 13.3472C22.3543 13.3472 21.8337 13.3569 21.3171 13.3712V13.3712ZM28.5869 15.088C29.2503 15.1609 29.9009 15.2459 30.539 15.3429C30.6355 15.9803 30.7204 16.6308 30.7936 17.2946C30.4389 16.9199 30.0785 16.5463 29.7067 16.1745C29.3349 15.8027 28.9616 15.443 28.5869 15.088V15.088ZM30.7936 28.7059C30.7206 29.3693 30.6357 30.02 30.5386 30.658C29.902 30.7545 29.2522 30.8393 28.5891 30.9122C28.9633 30.558 29.3359 30.196 29.7071 29.8261C30.0789 29.4542 30.4385 29.0806 30.7936 28.7059ZM24.4415 32.6297C23.9209 33.0471 23.4009 33.447 22.8813 33.8296C22.3619 33.447 21.8417 33.047 21.3207 32.6294C21.8366 32.6437 22.3557 32.6533 22.8813 32.6533C23.4068 32.6533 23.926 32.6437 24.4415 32.6297ZM17.1731 30.9122C16.5108 30.8393 15.861 30.7544 15.2239 30.6576C15.1271 30.0203 15.0422 29.3697 14.969 28.7059C15.324 29.0806 15.684 29.4542 16.0559 29.8261C16.4267 30.1969 16.7993 30.559 17.1735 30.9122H17.1731ZM15.4742 32.1521C16.5908 32.3082 17.7456 32.4288 18.9386 32.5139C19.8412 33.2973 20.7438 34.0294 21.6464 34.7101C20.1324 35.7592 18.5387 36.6883 16.88 37.4891C16.2731 35.7494 15.8031 33.965 15.4742 32.1521V32.1521ZM22.8813 44.4515C20.798 44.4515 18.8663 42.3049 17.3991 38.832C19.3178 37.9217 21.1523 36.8438 22.8813 35.6107C24.6104 36.8438 26.445 37.9218 28.3638 38.832C26.8962 42.3046 24.9646 44.4515 22.8813 44.4515ZM28.8826 37.4895C27.2239 36.6885 25.6302 35.7593 24.1162 34.7101C25.0169 34.0308 25.9195 33.2988 26.824 32.5139C28.0153 32.4298 29.1701 32.3092 30.2884 32.1521C29.9595 33.9651 29.4895 35.7497 28.8826 37.4895V37.4895ZM38.0494 38.1688C36.5764 39.6421 33.6916 39.4902 30.1976 38.0712C30.9117 36.0713 31.4475 34.0122 31.7989 31.9179C33.8931 31.5665 35.9521 31.0307 37.9518 30.3166C39.3712 33.8106 39.5228 36.6954 38.0498 38.1688H38.0494ZM32.5111 21.4401C32.9282 21.9606 33.328 22.4807 33.7106 23.0003C33.3283 23.5196 32.9283 24.0397 32.5107 24.5605C32.5247 24.045 32.5343 23.5258 32.5343 23.0003C32.5343 22.4747 32.5247 21.9556 32.5107 21.4401H32.5111ZM32.3952 19.0597C32.3113 17.8677 32.1907 16.7122 32.0334 15.5932C33.8463 15.9221 35.6308 16.3921 37.3705 16.999C36.5693 18.6582 35.6396 20.2524 34.5901 21.7668C33.9108 20.8664 33.179 19.964 32.3949 19.0597H32.3952ZM32.3952 26.9409C33.1787 26.0385 33.9104 25.1361 34.5904 24.2337C35.6399 25.7482 36.5694 27.3424 37.3705 29.0016C35.6308 29.6085 33.8463 30.0785 32.0334 30.4074C32.1898 29.2903 32.3104 28.1347 32.3952 26.9409ZM44.3325 23.0003C44.3325 25.0839 42.1852 27.0159 38.7112 28.4832C37.802 26.5643 36.7249 24.7295 35.4924 23.0003C36.7249 21.2711 37.802 19.4363 38.7112 17.5174C42.1852 18.9846 44.3325 20.9167 44.3325 23.0003ZM35.0527 6.7939C36.3162 6.7939 37.3444 7.12711 38.0498 7.83178C39.5228 9.30512 39.3708 12.19 37.9522 15.684C35.9523 14.9699 33.8932 14.434 31.7989 14.0827C31.4475 11.9885 30.9117 9.92951 30.1976 7.92974C31.7306 7.25059 33.3775 6.8653 35.0527 6.7939V6.7939ZM30.2884 13.8485C29.1713 13.6921 28.0157 13.5715 26.8219 13.4867C25.92 12.7035 25.0178 11.972 24.1154 11.2922C25.6297 10.2425 27.2236 9.31265 28.8826 8.51107C29.4895 10.251 29.9595 12.0357 30.2884 13.8488V13.8485ZM22.8813 1.54908C24.9649 1.54908 26.8969 3.69635 28.3642 7.17001C26.4451 8.07931 24.6102 9.15654 22.8809 10.3891C21.1518 9.15672 19.3172 8.0796 17.3984 7.17037C18.8656 3.69635 20.7977 1.54908 22.8813 1.54908ZM16.88 8.51143C18.5388 9.31292 20.1326 10.2427 21.6468 11.2922C20.7465 11.9715 19.8444 12.703 18.9403 13.4867C17.7486 13.5706 16.5932 13.6912 15.4742 13.8485C15.8031 12.0356 16.2731 10.2511 16.88 8.51143V8.51143ZM7.71314 7.83214C8.41817 7.12675 9.44604 6.7939 10.7099 6.7939C12.385 6.86518 14.032 7.25035 15.565 7.92939C14.8509 9.92926 14.315 11.9884 13.9637 14.0827C11.8695 14.434 9.8105 14.9699 7.81074 15.684C6.39139 12.19 6.2398 9.30512 7.71278 7.83178L7.71314 7.83214ZM7.05137 17.5174C7.96056 19.4363 9.03768 21.2711 10.2701 23.0003C9.03768 24.7295 7.96056 26.5643 7.05137 28.4832C3.57735 27.0159 1.43008 25.0839 1.43008 23.0003C1.43008 20.9167 3.57735 18.9846 7.05137 17.5174Z" fill="url(#paint0_linear)"/>
<path d="M22.8813 29.0781C24.0834 29.0781 25.2584 28.7217 26.2579 28.0538C27.2574 27.386 28.0365 26.4368 28.4965 25.3262C28.9565 24.2156 29.0768 22.9935 28.8423 21.8146C28.6078 20.6356 28.029 19.5526 27.179 18.7026C26.329 17.8526 25.246 17.2737 24.067 17.0392C22.888 16.8047 21.666 16.9251 20.5554 17.3851C19.4448 17.8451 18.4956 18.6241 17.8277 19.6236C17.1599 20.6231 16.8034 21.7982 16.8034 23.0003C16.8052 24.6117 17.4462 26.1566 18.5856 27.296C19.725 28.4354 21.2699 29.0763 22.8813 29.0781V29.0781ZM22.8813 18.3525C23.8005 18.3525 24.6991 18.6251 25.4634 19.1358C26.2278 19.6465 26.8235 20.3724 27.1752 21.2217C27.527 22.0709 27.6191 23.0054 27.4397 23.907C27.2604 24.8086 26.8177 25.6367 26.1677 26.2867C25.5177 26.9367 24.6896 27.3794 23.788 27.5587C22.8864 27.7381 21.9519 27.646 21.1027 27.2943C20.2534 26.9425 19.5275 26.3468 19.0168 25.5824C18.5061 24.8181 18.2335 23.9195 18.2335 23.0003C18.2349 21.7681 18.7251 20.5867 19.5964 19.7154C20.4677 18.8441 21.649 18.3539 22.8813 18.3525Z" fill="url(#paint1_linear)"/>
<path d="M22.8813 25.8604C23.447 25.8604 23.9999 25.6927 24.4703 25.3784C24.9406 25.0641 25.3072 24.6174 25.5237 24.0948C25.7402 23.5722 25.7968 22.9971 25.6865 22.4423C25.5761 21.8875 25.3037 21.3778 24.9037 20.9778C24.5037 20.5778 23.9941 20.3054 23.4393 20.1951C22.8845 20.0847 22.3094 20.1414 21.7867 20.3578C21.2641 20.5743 20.8174 20.9409 20.5031 21.4113C20.1889 21.8816 20.0211 22.4346 20.0211 23.0003C20.0221 23.7586 20.3237 24.4855 20.8599 25.0217C21.3961 25.5579 22.123 25.8595 22.8813 25.8604V25.8604ZM22.8813 21.5702C23.1641 21.5702 23.4406 21.6541 23.6758 21.8112C23.911 21.9684 24.0943 22.1917 24.2025 22.453C24.3107 22.7143 24.3391 23.0019 24.2839 23.2793C24.2287 23.5567 24.0925 23.8115 23.8925 24.0115C23.6925 24.2115 23.4377 24.3477 23.1603 24.4029C22.8829 24.4581 22.5953 24.4297 22.334 24.3215C22.0727 24.2133 21.8493 24.03 21.6922 23.7948C21.5351 23.5596 21.4512 23.2831 21.4512 23.0003C21.4516 22.6211 21.6024 22.2576 21.8705 21.9895C22.1386 21.7214 22.5021 21.5706 22.8813 21.5702V21.5702Z" fill="url(#paint2_linear)"/>
<defs>
<linearGradient id="paint0_linear" x1="0" y1="0.119003" x2="41.475" y2="19.4591" gradientUnits="userSpaceOnUse">
<stop stop-color="#41E296"/>
<stop offset="1" stop-color="#00C4EE"/>
</linearGradient>
<linearGradient id="paint1_linear" x1="8.12765" y1="22.4495" x2="19.1444" y2="27.5867" gradientUnits="userSpaceOnUse">
<stop stop-color="#41E296"/>
<stop offset="1" stop-color="#00C4EE"/>
</linearGradient>
<linearGradient id="paint2_linear" x1="9.68401" y1="26.7256" x2="14.8684" y2="29.1431" gradientUnits="userSpaceOnUse">
<stop stop-color="#41E296"/>
<stop offset="1" stop-color="#00C4EE"/>
</linearGradient>
</defs>
</svg>
